<svg width="33" height="32" viewBox="0 0 33 32" fill="none" xmlns="http://www.w3.org/2000/svg">
<path d="M16.3333 15.3355C15.4493 15.3355 14.6014 14.9843 13.9763 14.3592C13.3512 13.7341 13 12.8862 13 12.0022C13 11.1181 13.3512 10.2703 13.9763 9.64513C14.6014 9.02001 15.4493 8.66882 16.3333 8.66882C17.2174 8.66882 18.0652 9.02001 18.6904 9.64513C19.3155 10.2703 19.6667 11.1181 19.6667 12.0022C19.6667 12.4399 19.5804 12.8734 19.4129 13.2778C19.2454 13.6822 18.9999 14.0497 18.6904 14.3592C18.3808 14.6687 18.0134 14.9142 17.6089 15.0818C17.2045 15.2493 16.7711 15.3355 16.3333 15.3355ZM16.3333 2.66882C13.858 2.66882 11.484 3.65215 9.73367 5.40249C7.98333 7.15283 7 9.5268 7 12.0022C7 19.0022 16.3333 29.3355 16.3333 29.3355C16.3333 29.3355 25.6667 19.0022 25.6667 12.0022C25.6667 9.5268 24.6833 7.15283 22.933 5.40249C21.1827 3.65215 18.8087 2.66882 16.3333 2.66882Z" fill="#53B9AB"/>
</svg>
