<svg width="800" height="800" viewBox="0 0 800 800" fill="none" xmlns="http://www.w3.org/2000/svg">
<g clip-path="url(#clip0_4_4)">
<path d="M533.333 200L633.333 333.333H700C737 333.333 766.667 363 766.667 400V500H700C700 555.333 655.333 600 600 600C544.667 600 500 555.333 500 500H300C300 555.333 255.333 600 200 600C144.667 600 100 555.333 100 500H33.3333V400C33.3333 363 63 333.333 100 333.333L200 200H533.333ZM350 250H225L162 333.333H350V250ZM400 250V333.333H571.333L508.333 250H400ZM200 450C172.333 450 150 472.333 150 500C150 527.667 172.333 550 200 550C227.667 550 250 527.667 250 500C250 472.333 227.667 450 200 450ZM600 450C572.333 450 550 472.333 550 500C550 527.667 572.333 550 600 550C627.667 550 650 527.667 650 500C650 472.333 627.667 450 600 450Z" fill="#6F6F6F"/>
</g>
<defs>
<clipPath id="clip0_4_4">
<rect width="800" height="800" fill="white"/>
</clipPath>
</defs>
</svg>
